<svg width="87" height="87" xmlns="http://www.w3.org/2000/svg"><g transform="translate(1 1)" fill="none" fill-rule="evenodd"><circle stroke="#FFF" cx="42.5" cy="42.5" r="42.5"/><path d="M50.784 51.589a20.145 20.145 0 01-2.936-1.076c-2.86-1.33-4.751-3.058-5.852-4.934-1.101 1.86-2.992 3.604-5.852 4.934-.949.44-1.93.804-2.936 1.091a19.283 19.283 0 01-10.863.041 13.763 13.763 0 01-8.635-7.585 17.333 17.333 0 01-.943-2.549 1.229 1.229 0 012.212-1.034c1.76 2.156 3.222 2.89 4.517 2.773 1.295-.118 2.717-1.147 4.078-2.463.326-.31.836-.82 1.356-1.34 1.02-1.02 2.14-2.136 3.308-3.12 3.777-3.19 7.498-3.568 10.297-2.345a7.713 7.713 0 013.46 2.967 7.712 7.712 0 013.467-2.967c2.799-1.203 6.52-.846 10.297 2.345 1.167.984 2.268 2.085 3.308 3.12.51.51 1.02 1.02 1.361 1.34 1.377 1.316 2.733 2.345 4.078 2.463 1.346.117 2.758-.617 4.517-2.773a1.228 1.228 0 012.186 1.045 17.333 17.333 0 01-.943 2.548 13.763 13.763 0 01-8.635 7.57 19.283 19.283 0 01-10.862-.04" fill="#FFF" fill-rule="nonzero"/></g></svg>